<svg xmlns="http://www.w3.org/2000/svg" viewBox="0 0 40 40">
  <ellipse cx="20" cy="11" rx="2.5" ry="5.5" fill="#F2C12E" transform="rotate(0 20 20)"/>
  <ellipse cx="20" cy="11" rx="2.5" ry="5.5" fill="#F2C12E" transform="rotate(30 20 20)"/>
  <ellipse cx="20" cy="11" rx="2.5" ry="5.5" fill="#F2C12E" transform="rotate(60 20 20)"/>
  <ellipse cx="20" cy="11" rx="2.5" ry="5.5" fill="#F2C12E" transform="rotate(90 20 20)"/>
  <ellipse cx="20" cy="11" rx="2.5" ry="5.5" fill="#F2C12E" transform="rotate(120 20 20)"/>
  <ellipse cx="20" cy="11" rx="2.5" ry="5.5" fill="#F2C12E" transform="rotate(150 20 20)"/>
  <ellipse cx="20" cy="11" rx="2.5" ry="5.5" fill="#F2C12E" transform="rotate(180 20 20)"/>
  <ellipse cx="20" cy="11" rx="2.5" ry="5.5" fill="#F2C12E" transform="rotate(210 20 20)"/>
  <ellipse cx="20" cy="11" rx="2.5" ry="5.5" fill="#F2C12E" transform="rotate(240 20 20)"/>
  <ellipse cx="20" cy="11" rx="2.5" ry="5.5" fill="#F2C12E" transform="rotate(270 20 20)"/>
  <ellipse cx="20" cy="11" rx="2.5" ry="5.5" fill="#F2C12E" transform="rotate(300 20 20)"/>
  <ellipse cx="20" cy="11" rx="2.5" ry="5.5" fill="#F2C12E" transform="rotate(330 20 20)"/>
  <circle cx="20" cy="20" r="5" fill="#D4A017"/>
</svg>
